#!OML:ASF X:\für Bonn\!DataBase\2005_08_12_Daniel\c3d\Daniel.ASF
:FULLY-SPECIFIED
:DEGREES
76
root -26.0348 16.1131 -23.9299 -3.6377 45.7208 -718.053
lowerback 42.2728 1.182 0.82254
upperback 11.2109 2.09577 -4.82896
thorax -7.40724 1.50501 -6.50923
lowerneck -5.13498 -1.52919 -6.32755
upperneck -6.15073 -1.66938 0.876127
head -0.991233 -0.672637 1.32152
rclavicle 6.63941e-014 -4.69132e-014
rhumerus -21.8557 9.4796 -92.8671
rradius 60.7547
rwrist 2.37181
rhand -26.7655 25.0906
rfingers 7.12502
rthumb -0.193625 -4.8891
lclavicle 6.63941e-014 -4.69132e-014
lhumerus -24.2209 41.8177 71.3079
lradius 21.2926
lwrist -37.0474
lhand -14.7516 -8.03884
lfingers 7.12502
lthumb 11.4043 21.631
rfemur 2.406 9.81691 21.9726
rtibia 56.2207
rfoot -23.5161 13.5835
rtoes 0.488214
lfemur -43.2364 -5.01324 -17.5919
ltibia 50.9403
lfoot -6.16233 -6.79719
ltoes -12.5272
77
root -25.9312 16.1189 -23.8694 -3.3419 45.736 -718.109
lowerback 42.1561 1.24388 0.791651
upperback 11.1964 2.15228 -4.86422
thorax -7.38358 1.53055 -6.55135
lowerneck -4.90566 -1.56629 -6.40436
upperneck -6.41954 -1.73036 0.988456
head -1.11108 -0.696409 1.37496
rclavicle -3.77691e-014 1.15295e-014
rhumerus -21.6892 9.61223 -92.8379
rradius 60.7271
rwrist 2.37356
rhand -26.8555 25.0822
rfingers 7.12502
rthumb -0.280532 -4.89734
lclavicle -3.77691e-014 1.15295e-014
lhumerus -24.2907 42.2696 71.0643
lradius 21.1119
lwrist -37.5611
lhand -14.8928 -8.07367
lfingers 7.12502
lthumb 11.2682 21.6037
rfemur 2.6908 9.93412 22.0012
rtibia 55.752
rfoot -23.2368 13.4023
rtoes 0.562535
lfemur -43.6161 -4.95304 -17.706
ltibia 51.622
lfoot -6.32777 -6.9176
ltoes -11.9399
78
root -25.827 16.1248 -23.8089 -3.08191 45.7556 -718.214
lowerback 42.0357 1.2856 0.800656
upperback 11.1733 2.19923 -4.90029
thorax -7.36856 1.55113 -6.61148
lowerneck -4.78589 -1.61104 -6.43026
upperneck -6.55621 -1.79582 1.0732
head -1.17126 -0.726492 1.40874
rclavicle 6.99722e-014 -5.1684e-015
rhumerus -21.5499 9.79753 -92.7997
rradius 60.708
rwrist 2.37306
rhand -26.9767 24.9206
rfingers 7.12502
rthumb -0.397591 -5.05879
lclavicle 6.99722e-014 -5.1684e-015
lhumerus -24.3495 42.6046 70.8363
lradius 20.9486
lwrist -37.8502
lhand -14.971 -8.05939
lfingers 7.12502
lthumb 11.1927 21.6221
rfemur 2.97456 10.0161 22.0413
rtibia 55.2684
rfoot -22.9092 13.2824
rtoes 0.846297
lfemur -43.9833 -4.91235 -17.7858
ltibia 52.2872
lfoot -6.50359 -7.01267
ltoes -11.3895
79
root -25.7237 16.1317 -23.7478 -2.80196 45.7952 -718.276
lowerback 41.9279 1.34288 0.772623
upperback 11.1586 2.25254 -4.93002
thorax -7.34773 1.57522 -6.64788
lowerneck -4.75314 -1.64555 -6.40941
upperneck -6.62093 -1.84316 1.13264
head -1.19511 -0.749854 1.42485
rclavicle -4.37326e-015 2.0276e-014
rhumerus -21.3992 9.92946 -92.747
rradius 60.6635
rwrist 2.33595
rhand -27.0616 24.6754
rfingers 7.12502
rthumb -0.479548 -5.30382
lclavicle -4.37326e-015 2.0276e-014
lhumerus -24.3387 42.8648 70.6987
lradius 20.8185
lwrist -38.0556
lhand -14.9898 -7.97368
lfingers 7.12502
lthumb 11.1746 21.7087
rfemur 3.26155 10.0677 22.0551
rtibia 54.7798
rfoot -22.5623 13.1297
rtoes 1.02506
lfemur -44.3176 -4.85521 -17.894
ltibia 52.9261
lfoot -6.73509 -7.14248
ltoes -10.8027
80
root -25.6198 16.1403 -23.6864 -2.47874 45.8033 -718.333
lowerback 41.7781 1.41744 0.723276
upperback 11.1209 2.31576 -4.95311
thorax -7.33944 1.60125 -6.66936
lowerneck -4.65232 -1.68039 -6.42594
upperneck -6.68634 -1.89471 1.20115
head -1.23028 -0.774947 1.45125
rclavicle 1.90833e-014 3.61788e-014
rhumerus -21.3072 10.0786 -92.7045
rradius 60.6217
rwrist 2.29555
rhand -27.2267 24.3922
rfingers 7.12502
rthumb -0.639056 -5.58658
lclavicle 1.90833e-014 3.61788e-014
lhumerus -24.3768 43.2247 70.5349
lradius 20.7078
lwrist -38.372
lhand -14.9964 -7.82757
lfingers 7.12502
lthumb 11.1682 21.8552
rfemur 3.50466 10.1297 22.0396
rtibia 54.2933
rfoot -22.1377 12.986
rtoes 1.28031
lfemur -44.6787 -4.76585 -18.0153
ltibia 53.558
lfoot -7.00404 -7.27677
ltoes -10.3942
81
root -25.5157 16.1495 -23.6251 -2.19233 45.8052 -718.439
lowerback 41.6431 1.4845 0.690496
upperback 11.0688 2.37524 -4.97132
thorax -7.35154 1.62423 -6.69368
lowerneck -4.5639 -1.70577 -6.4042
upperneck -6.723 -1.93534 1.23625
head -1.2551 -0.795827 1.45991
rclavicle -7.59357e-014 -2.66371e-014
rhumerus -21.2165 10.2829 -92.6664
rradius 60.5662
rwrist 2.21127
rhand -27.3761 24.0525
rfingers 7.12502
rthumb -0.783289 -5.92583
lclavicle -7.59357e-014 -2.66371e-014
lhumerus -24.3738 43.3755 70.4301
lradius 20.61
lwrist -38.4259
lhand -14.987 -7.62341
lfingers 7.12502
lthumb 11.1773 22.0589
rfemur 3.73444 10.1711 22.052
rtibia 53.8121
rfoot -21.7049 12.8457
rtoes 1.20737
lfemur -45.0242 -4.66415 -18.1043
ltibia 54.1819
lfoot -7.33105 -7.38133
ltoes -10.1563
82
root -25.4119 16.1585 -23.5629 -1.87645 45.8021 -718.52
lowerback 41.4657 1.56267 0.633924
upperback 11.0313 2.44031 -4.99246
thorax -7.33423 1.65081 -6.70874
lowerneck -4.42648 -1.72802 -6.37047
upperneck -6.82605 -1.976 1.26734
head -1.30949 -0.815522 1.46652
rclavicle 4.57205e-014 1.86858e-014
rhumerus -21.0975 10.4783 -92.6305
rradius 60.494
rwrist 2.08969
rhand -27.4779 23.6764
rfingers 7.12502
rthumb -0.881657 -6.30154
lclavicle 4.57205e-014 1.86858e-014
lhumerus -24.2972 43.5668 70.3519
lradius 20.5209
lwrist -38.4971
lhand -14.8544 -7.39739
lfingers 7.12502
lthumb 11.3052 22.2779
rfemur 3.94569 10.2152 22.0469
rtibia 53.337
rfoot -21.2891 12.6796
rtoes 0.992288
lfemur -45.3704 -4.52965 -18.2269
ltibia 54.8064
lfoot -7.71245 -7.53723
ltoes -10.0778
83
root -25.3087 16.1656 -23.501 -1.59328 45.8011 -718.604
lowerback 41.3498 1.64099 0.589488
upperback 10.9684 2.50823 -5.0125
thorax -7.36295 1.67719 -6.73322
lowerneck -4.29745 -1.75389 -6.3514
upperneck -6.8528 -2.01984 1.31481
head -1.33789 -0.838708 1.48019
rclavicle -1.59028e-015 -3.57812e-014
rhumerus -21.0461 10.6037 -92.612
rradius 60.4177
rwrist 1.999
rhand -27.5336 23.3707
rfingers 7.12502
rthumb -0.935493 -6.60701
lclavicle -1.59028e-015 -3.57812e-014
lhumerus -24.2206 43.8056 70.26
lradius 20.4071
lwrist -38.6808
lhand -14.6873 -7.21935
lfingers 7.12502
lthumb 11.4663 22.4471
rfemur 4.18096 10.2304 22.0351
rtibia 52.8624
rfoot -20.8355 12.5186
rtoes 0.844681
lfemur -45.677 -4.41313 -18.344
ltibia 55.4323
lfoot -8.13935 -7.65703
ltoes -9.98146
84
root -25.2056 16.1728 -23.4392 -1.34632 45.7864 -718.711
lowerback 41.2234 1.72662 0.525265
upperback 10.9248 2.58116 -5.01331
thorax -7.36689 1.70649 -6.72699
lowerneck -4.15316 -1.77728 -6.33739
upperneck -6.93106 -2.06127 1.35853
head -1.38548 -0.859298 1.49439
rclavicle 3.81667e-014 -5.48646e-014
rhumerus -20.9674 10.7561 -92.5784
rradius 60.3584
rwrist 1.91183
rhand -27.4774 23.0476
rfingers 7.12502
rthumb -0.881207 -6.93031
lclavicle 3.81667e-014 -5.48646e-014
lhumerus -24.0634 43.7441 70.3196
lradius 20.3779
lwrist -38.5264
lhand -14.5287 -6.97558
lfingers 7.12502
lthumb 11.6192 22.6823
rfemur 4.43902 10.2299 22.0297
rtibia 52.3836
rfoot -20.372 12.3971
rtoes 0.626362
lfemur -45.9556 -4.27676 -18.4501
ltibia 56.0613
lfoot -8.61044 -7.79469
ltoes -9.96401
85
root -25.1027 16.1794 -23.3757 -1.13036 45.7841 -718.82
lowerback 41.1131 1.81141 0.455529
upperback 10.8768 2.65173 -5.0057
thorax -7.3812 1.7342 -6.70845
lowerneck -4.02008 -1.79443 -6.32591
upperneck -6.95607 -2.09371 1.39636
head -1.41461 -0.876597 1.50653
rclavicle -5.48646e-014 8.50798e-014
rhumerus -20.9458 10.9279 -92.5457
rradius 60.3002
rwrist 1.73671
rhand -27.3803 22.8441
rfingers 7.12502
rthumb -0.787405 -7.13419
lclavicle -5.48646e-014 8.50798e-014
lhumerus -23.9586 43.689 70.3785
lradius 20.4063
lwrist -38.4172
lhand -14.3558 -6.82379
lfingers 7.12502
lthumb 11.786 22.8246
rfemur 4.73607 10.2335 22.0573
rtibia 51.8911
rfoot -19.8796 12.2021
rtoes 0.261512
lfemur -46.1942 -4.14432 -18.5555
ltibia 56.6888
lfoot -9.09819 -7.941
ltoes -10.0032
86
root -25.0009 16.1853 -23.3123 -0.988136 45.7704 -718.979
lowerback 41.0452 1.89073 0.411513
upperback 10.826 2.72514 -5.0003
thorax -7.41044 1.76342 -6.70852
lowerneck -3.85415 -1.80581 -6.28744
upperneck -7.02094 -2.12185 1.42663
head -1.46255 -0.891533 1.51249
rclavicle -2.62396e-014 4.13472e-014
rhumerus -20.9052 11.0361 -92.5424
rradius 60.1898
rwrist 1.63601
rhand -27.2208 22.6591
rfingers 7.12502
rthumb -0.633322 -7.3197
lclavicle -2.62396e-014 4.13472e-014
lhumerus -23.8336 43.469 70.4797
lradius 20.5005
lwrist -38.1089
lhand -14.1863 -6.71018
lfingers 7.12502
lthumb 11.9494 22.9288
rfemur 5.06245 10.2357 22.1166
rtibia 51.3919
rfoot -19.3282 12.0336
rtoes 0.134887
lfemur -46.3807 -4.0386 -18.6065
ltibia 57.2996
lfoot -9.6245 -8.05178
ltoes -10.0041
